# xmcd CD database file
#
# Track frame offsets:
#	150
#	21154
#	33817
#	50445
#	64394
#	82520
#	99546
#	117148
#	131777
#	149929
#	167188
#	183606
#	197566
#	213259
#	225635
#
# Disc length: 3212 seconds
#
# Revision: 0
# Processed by: cddbd v1.5.2PL0 Copyright (c) Steve Scherf et al.
# Submitted via: CdAid (MTCDDB.DLL V2003.07.15)
#
DISCID=d30c8a0f
DTITLE=Various Artist - Mixed Country Volume 8 Disk 1
DYEAR=2006
DGENRE=Country
TTITLE0=8th Of November
TTITLE1=Why, Why, Why
TTITLE2=The World
TTITLE3=Get Outta My Way
TTITLE4=Don't Forget To Remember Me
TTITLE5=Jesus Take The Wheel
TTITLE6=I Got You
TTITLE7=Findin' A Good Man
TTITLE8=God Only Cries
TTITLE9=How 'Bout You
TTITLE10=The Lucky One
TTITLE11=California Girls
TTITLE12=Not Going Down
TTITLE13=Size Matters (Someday)
TTITLE14=Faverite State Of Mind
EXTD=ID3G:   2 YEAR: 2006
EXTT0=Big and Rich
EXTT1=Billy Currington
EXTT2=Braid Paisley
EXTT3=Carolina Rain
EXTT4=Carrie Underwood
EXTT5=Carrie Underwood
EXTT6=Craig Morgan
EXTT7=Danelle Peck
EXTT8=Diamond Rio
EXTT9=Eric Church
EXTT10=Faith Hill
EXTT11=Gretchen Wilson
EXTT12=JoDee Messina
EXTT13=Joe Nichols
EXTT14=Josh Gracin
PLAYORDER=
